<svg xmlns="http://www.w3.org/2000/svg" width="20" height="20" viewBox="0 0 20 20">
  <g id="Group_3699" data-name="Group 3699" transform="translate(-744.819 -581.819)">
    <circle id="Ellipse_1" data-name="Ellipse 1" cx="10" cy="10" r="10" transform="translate(744.819 581.819)" fill="#fff"/>
    <path id="Path_462" data-name="Path 462" d="M409.592,208.38v3.1c0,.118,0,.118.116.119H411.5c.043,0,.062-.017.061-.061v-.089c0-.45-.005-.9,0-1.351.01-.686-.028-1.372.022-2.057a2.214,2.214,0,0,1,.148-.681.907.907,0,0,1,.6-.553,1.478,1.478,0,0,1,.72-.039.821.821,0,0,1,.606.444,1.764,1.764,0,0,1,.182.814c.007,1.133,0,2.266,0,3.4v.088c0,.083,0,.085.087.085h1.794c.088,0,.089,0,.09-.094.013-.79-.015-1.582.02-2.372a8.134,8.134,0,0,0-.017-1.209c-.022-.208,0-.419-.024-.629a5.4,5.4,0,0,0-.082-.556,2.4,2.4,0,0,0-.469-1.044,1.838,1.838,0,0,0-.732-.516,2.891,2.891,0,0,0-.894-.173,2.419,2.419,0,0,0-.663.041,2.121,2.121,0,0,0-1.09.586,3.861,3.861,0,0,0-.273.344c-.019.023-.028.075-.071.053-.019-.011-.027-.056-.027-.086,0-.223,0-.446,0-.67,0-.092,0-.092-.089-.095h-1.655c-.167,0-.15-.016-.15.146Q409.592,206.85,409.592,208.38Zm-3.262,0v3.058c0,.166-.017.151.146.152h1.668c.174,0,.157.019.157-.153V205.25c0-.071,0-.073-.07-.076h-1.793c-.1,0-.1,0-.107.1v3.107Zm.99-6.421a1.065,1.065,0,0,0-.817.328,1.153,1.153,0,0,0,.8,1.967,1.1,1.1,0,0,0,.825-.342,1.055,1.055,0,0,0,.328-.792,1.134,1.134,0,0,0-1.108-1.16h-.028Z" transform="translate(343.813 383.774)" fill="#303133"/>
  </g>
</svg>
